<svg width="32" height="31" viewBox="0 0 32 31" fill="none" xmlns="http://www.w3.org/2000/svg">
<path d="M31.7592 8.6178C31.5305 9.45529 31.0865 11.0798 30.6459 12.6976C30.5219 13.1209 30.3645 13.5337 30.175 13.932C29.3241 15.792 29.1862 17.7562 29.1156 19.744C29.0181 22.4919 28.6548 25.2095 27.5785 27.8162C27.3546 28.3566 27.0703 28.87 26.7309 29.3465C25.2544 31.4285 22.3585 31.516 20.8483 29.4441C20.245 28.533 19.7792 27.5379 19.4659 26.491C18.9883 25.0918 18.6789 23.6388 18.2585 22.2228C18.1115 21.7556 17.901 21.3108 17.6329 20.901C16.8055 19.6195 15.0968 19.4783 14.1988 20.716C13.596 21.6268 13.1154 22.6129 12.7693 23.6489C12.1202 25.3575 11.582 27.1065 10.9564 28.8252C10.7893 29.2142 10.5548 29.5706 10.2636 29.8779C9.98481 30.2196 9.63528 30.4968 9.23907 30.6903C8.84286 30.8839 8.4094 30.9893 7.96855 30.9992C7.5277 31.0091 7.08993 30.9233 6.68542 30.7477C6.28091 30.5722 5.9193 30.311 5.62544 29.9822C4.56131 28.818 3.85997 27.3685 3.60739 25.8116C3.1654 23.5532 2.8532 21.2713 2.67235 18.9771C2.5704 17.321 2.24107 15.6867 1.6936 14.1203C1.02092 12.2705 0.348232 10.3937 0.075795 8.47652C-0.38163 5.17028 1.26308 2.62418 4.15226 0.791119C5.78688 -0.248177 7.63339 -0.120377 9.453 0.360592C10.3847 0.602758 11.3096 0.861749 12.2177 1.16782C14.5033 1.95949 16.9864 1.97368 19.2809 1.20818C20.4245 0.84493 21.595 0.535514 22.7688 0.259714C23.7971 -0.00207472 24.8737 -0.00904029 25.9053 0.239472C26.9368 0.487985 27.8922 0.984467 28.6884 1.6858C30.7098 3.36078 31.7693 5.42255 31.7592 8.6178Z" fill="white"/>
</svg>
