<svg width="65" height="54" viewBox="0 0 65 54" fill="none" xmlns="http://www.w3.org/2000/svg">
<path d="M11.9677 35.0384C12.2067 35.0385 12.4384 35.1227 12.622 35.2757C15.5151 37.6883 17.0986 40.8809 17.0986 44.2649V52.7639C17.0984 53.0346 16.991 53.2941 16.7997 53.4856C16.6082 53.6772 16.348 53.7853 16.0771 53.7854H7.85739C7.58634 53.7854 7.32639 53.6773 7.13474 53.4856C6.9433 53.2941 6.83506 53.0347 6.83493 52.7639V44.2649C6.83493 40.8808 8.4195 37.6883 11.3134 35.2757C11.4971 35.1228 11.7287 35.0384 11.9677 35.0384ZM11.8154 37.5804C9.91967 39.4737 8.87887 41.8127 8.87887 44.2649V51.7415H15.0546V44.2649C15.0546 41.8126 14.0148 39.4738 12.1181 37.5804L11.9667 37.429L11.8154 37.5804Z" fill="#4D2C19" stroke="white" stroke-width="0.428571"/>
<path d="M19.9198 25.9491H44.365C44.636 25.9492 44.8961 26.0573 45.0877 26.2489C45.2793 26.4405 45.3865 26.7006 45.3865 26.9716V52.7634C45.3865 53.0344 45.2792 53.2945 45.0877 53.4861C44.8961 53.6777 44.636 53.7859 44.365 53.7859H19.9198C19.6488 53.7859 19.3888 53.6777 19.1972 53.4861C19.0056 53.2945 18.8974 53.0344 18.8974 52.7634V26.9716C18.8974 26.7006 19.0055 26.4405 19.1972 26.2489C19.3888 26.0573 19.6488 25.9491 19.9198 25.9491ZM20.9413 51.742H43.3426V27.993H20.9413V51.742Z" fill="#4D2C19" stroke="white" stroke-width="0.428571"/>
<path d="M4.01756 29.8768H19.9198C20.1907 29.8769 20.4509 29.9851 20.6425 30.1766C20.834 30.3682 20.9413 30.6284 20.9413 30.8993V52.7634C20.9413 53.0343 20.834 53.2945 20.6425 53.4861C20.4509 53.6776 20.1907 53.7858 19.9198 53.7859H4.01756C3.74653 53.7859 3.48656 53.6777 3.29491 53.4861C3.10326 53.2945 2.9951 53.0345 2.9951 52.7634V30.8993C2.9951 30.6283 3.10326 30.3683 3.29491 30.1766C3.48656 29.985 3.74652 29.8768 4.01756 29.8768ZM5.03904 51.742H18.8974V31.9208H5.03904V51.742Z" fill="#4D2C19" stroke="white" stroke-width="0.428571"/>
<path d="M32.1405 31.1376C32.3588 31.1376 32.5712 31.2082 32.7469 31.3378C34.6936 32.7746 36.2135 34.4494 37.2694 36.3153C38.3439 38.2164 38.8866 40.2216 38.8866 42.2791V52.7634C38.8866 53.0343 38.7792 53.2945 38.5877 53.4861C38.3961 53.6777 38.1361 53.7859 37.8651 53.7859H26.4159C26.1449 53.7859 25.8849 53.6777 25.6933 53.4861C25.5017 53.2945 25.3934 53.0344 25.3934 52.7634V42.2791C25.3934 40.2216 25.9371 38.2157 27.0116 36.3153C28.0675 34.4494 29.5874 32.7746 31.534 31.3378C31.7097 31.2082 31.9222 31.1376 32.1405 31.1376ZM32.0038 33.5624C29.0637 35.9943 27.4374 39.0591 27.4374 42.2791V51.742H36.8426V42.2791C36.8426 39.0591 35.2173 35.9943 32.2772 33.5624L32.1405 33.4501L32.0038 33.5624Z" fill="#4D2C19" stroke="white" stroke-width="0.428571"/>
<path d="M4.01756 19.498H19.9198C20.1907 19.4981 20.4509 19.6062 20.6425 19.7978C20.834 19.9894 20.9413 20.2495 20.9413 20.5204V25.7743C20.9412 26.0449 20.8337 26.3045 20.6425 26.496C20.4509 26.6875 20.1907 26.7957 19.9198 26.7958H4.01756C3.74652 26.7958 3.48656 26.6876 3.29491 26.496C3.10348 26.3045 2.99521 26.0451 2.9951 25.7743V20.5204C2.9951 20.2494 3.10326 19.9894 3.29491 19.7978C3.48656 19.6061 3.74652 19.498 4.01756 19.498ZM5.03904 24.7518H18.8974V21.5419H5.03904V24.7518Z" fill="#4D2C19" stroke="white" stroke-width="0.428571"/>
<path d="M19.912 4.66697H26.411C26.6819 4.66706 26.9421 4.77521 27.1337 4.96678C27.3252 5.15839 27.4325 5.41852 27.4325 5.68943V20.5234C27.4324 20.7943 27.3253 21.0544 27.1337 21.246C26.9421 21.4376 26.6819 21.5447 26.411 21.5448H19.912C19.6411 21.5448 19.381 21.4375 19.1894 21.246C18.9978 21.0544 18.8896 20.7943 18.8896 20.5234V5.68943C18.8896 5.41842 18.9977 5.15841 19.1894 4.96678C19.381 4.77514 19.641 4.66697 19.912 4.66697ZM20.9335 19.5009H25.3886V6.71091H20.9335V19.5009Z" fill="#4D2C19" stroke="white" stroke-width="0.428571"/>
<path d="M23.162 0.213866C24.4363 0.213953 25.496 0.755291 26.2421 1.70214C26.9914 2.65324 27.4325 4.02594 27.4325 5.69236C27.4325 5.96328 27.3252 6.22339 27.1337 6.41501C26.9421 6.60657 26.6819 6.71473 26.411 6.71482C26.14 6.71482 25.88 6.60656 25.6884 6.41501C25.4967 6.22337 25.3886 5.96337 25.3886 5.69236C25.3886 5.41493 25.3642 4.58032 25.0878 3.8076C24.9492 3.42023 24.7426 3.0342 24.4306 2.74315C24.1136 2.44763 23.6965 2.25787 23.162 2.2578C22.6273 2.2578 22.2096 2.44734 21.8925 2.74315C21.5804 3.03442 21.3739 3.42102 21.2353 3.80858C20.9587 4.58166 20.9335 5.41638 20.9335 5.69236C20.9335 5.96334 20.8263 6.22338 20.6347 6.41501C20.443 6.60663 20.183 6.71479 19.912 6.71482C19.641 6.71482 19.381 6.60664 19.1894 6.41501C18.9977 6.22337 18.8896 5.96337 18.8896 5.69236C18.8896 4.02594 19.3314 2.65324 20.081 1.70214C20.8273 0.755201 21.8876 0.213866 23.162 0.213866Z" fill="#4D2C19" stroke="white" stroke-width="0.428571"/>
<path d="M37.869 4.66697H44.367C44.638 4.667 44.898 4.77517 45.0897 4.96678C45.2812 5.1584 45.3885 5.41847 45.3885 5.68943V20.5234C45.3884 20.7943 45.2812 21.0544 45.0897 21.246C44.898 21.4375 44.6379 21.5448 44.367 21.5448H37.869C37.598 21.5448 37.338 21.4375 37.1463 21.246C36.9547 21.0544 36.8466 20.7943 36.8465 20.5234V5.68943C36.8465 5.41842 36.9547 5.15841 37.1463 4.96678C37.338 4.77514 37.5979 4.66697 37.869 4.66697ZM38.8905 19.5009H43.3445V6.71091H38.8905V19.5009Z" fill="#4D2C19" stroke="white" stroke-width="0.428571"/>
<path d="M41.119 0.213866C42.3936 0.213953 43.4521 0.755379 44.1971 1.70214C44.9454 2.65321 45.3855 4.02579 45.3855 5.69236C45.3855 5.96329 45.2783 6.22339 45.0867 6.41501C44.8951 6.60658 44.635 6.71474 44.3641 6.71482C44.0931 6.71482 43.8331 6.60658 43.6414 6.41501C43.4498 6.22337 43.3416 5.96337 43.3416 5.69236C43.3416 5.41499 43.3176 4.5803 43.0418 3.8076C42.9035 3.42021 42.6971 3.03424 42.3856 2.74315C42.0691 2.44758 41.6528 2.25787 41.119 2.2578C40.5851 2.2578 40.1682 2.44747 39.8514 2.74315C39.5393 3.03443 39.3321 3.42095 39.1932 3.80858C38.9163 4.58158 38.8905 5.41616 38.8905 5.69236C38.8905 5.96334 38.7832 6.22338 38.5916 6.41501C38.4 6.60663 38.14 6.71479 37.869 6.71482C37.5979 6.71482 37.338 6.60664 37.1463 6.41501C36.9547 6.22337 36.8465 5.96337 36.8465 5.69236C36.8465 4.02588 37.2884 2.65324 38.0379 1.70214C38.7841 0.755263 39.8442 0.213866 41.119 0.213866Z" fill="#4D2C19" stroke="white" stroke-width="0.428571"/>
<path d="M19.9198 19.5009H44.365C44.636 19.5009 44.8961 19.6091 45.0877 19.8007C45.2793 19.9923 45.3865 20.2524 45.3865 20.5234C45.3865 20.7943 45.2793 21.0544 45.0877 21.246C44.8961 21.4376 44.636 21.5448 44.365 21.5448H19.9198C19.6489 21.5448 19.3888 21.4375 19.1972 21.246C19.0056 21.0544 18.8974 20.7943 18.8974 20.5234C18.8974 20.2523 19.0055 19.9923 19.1972 19.8007C19.3888 19.6091 19.6488 19.5009 19.9198 19.5009Z" fill="#4D2C19" stroke="white" stroke-width="0.428571"/>
<path d="M26.0292 19.5009C26.3002 19.5009 26.5602 19.6091 26.7518 19.8007C26.9434 19.9923 27.0507 20.2524 27.0507 20.5234V26.9716C27.0506 27.2425 26.9434 27.5027 26.7518 27.6942C26.5602 27.8857 26.3001 27.993 26.0292 27.993C25.7583 27.993 25.4982 27.8857 25.3065 27.6942C25.115 27.5027 25.0068 27.2425 25.0067 26.9716V20.5234C25.0067 20.2523 25.1149 19.9923 25.3065 19.8007C25.4982 19.6091 25.7581 19.5009 26.0292 19.5009Z" fill="#4D2C19" stroke="white" stroke-width="0.428571"/>
<path d="M32.1424 19.5009C32.4135 19.5009 32.6735 19.6091 32.8651 19.8007C33.0567 19.9923 33.1639 20.2524 33.1639 20.5234V26.9716C33.1638 27.2425 33.0567 27.5027 32.8651 27.6942C32.6735 27.8857 32.4134 27.993 32.1424 27.993C31.8715 27.993 31.6114 27.8857 31.4198 27.6942C31.2282 27.5027 31.1201 27.2425 31.12 26.9716V20.5234C31.12 20.2523 31.2281 19.9923 31.4198 19.8007C31.6114 19.6091 31.8714 19.5009 32.1424 19.5009Z" fill="#4D2C19" stroke="white" stroke-width="0.428571"/>
<path d="M38.2518 19.5009C38.5228 19.5009 38.7828 19.6091 38.9744 19.8007C39.166 19.9923 39.2733 20.2524 39.2733 20.5234V26.9716C39.2732 27.2425 39.166 27.5027 38.9744 27.6942C38.7828 27.8857 38.5227 27.993 38.2518 27.993C37.9809 27.993 37.7208 27.8857 37.5291 27.6942C37.3376 27.5027 37.2294 27.2425 37.2293 26.9716V20.5234C37.2293 20.2523 37.3375 19.9923 37.5291 19.8007C37.7208 19.6091 37.9807 19.5009 38.2518 19.5009Z" fill="#4D2C19" stroke="white" stroke-width="0.428571"/>
<path d="M1.23632 24.7515H19.9198C20.1908 24.7515 20.4509 24.8597 20.6425 25.0513C20.8341 25.2429 20.9423 25.5029 20.9423 25.7739V30.8989C20.9423 31.1699 20.8341 31.4299 20.6425 31.6216C20.4508 31.8132 20.1908 31.9214 19.9198 31.9214H4.01854C3.83442 31.9214 3.65329 31.8711 3.4951 31.7769C3.33705 31.6827 3.20677 31.548 3.11913 31.3862V31.3853L0.337889 26.2612C0.253433 26.1056 0.211317 25.9305 0.214843 25.7534C0.218381 25.5764 0.267778 25.4027 0.358397 25.2505C0.449001 25.0985 0.577587 24.9727 0.731442 24.8853C0.885347 24.7979 1.05932 24.7515 1.23632 24.7515ZM3.12401 27.1118L4.56248 29.7651L4.62303 29.8774H18.8984V26.7954H2.95311L3.12401 27.1118Z" fill="#4D2C19" stroke="white" stroke-width="0.428571"/>
<path d="M52.3181 35.0384C52.5572 35.0384 52.7888 35.1227 52.9724 35.2757C55.8656 37.6883 57.45 40.8808 57.45 44.2649V52.7639C57.4498 53.0346 57.3424 53.2941 57.1511 53.4856C56.9596 53.6772 56.6994 53.7853 56.4285 53.7854H48.2088C47.9377 53.7854 47.6778 53.6773 47.4861 53.4856C47.2947 53.2941 47.1865 53.0347 47.1863 52.7639V44.2649C47.1863 40.8808 48.7699 37.6883 51.6638 35.2757C51.8475 35.1227 52.0791 35.0384 52.3181 35.0384ZM52.1668 37.5804C50.2703 39.4737 49.2303 41.8127 49.2303 44.2649V51.7415H55.406V44.2649C55.406 41.8126 54.3653 39.4737 52.4695 37.5804L52.3181 37.429L52.1668 37.5804Z" fill="#4D2C19" stroke="white" stroke-width="0.428571"/>
<path d="M44.365 29.8768H60.2673C60.5382 29.8769 60.7984 29.9851 60.99 30.1766C61.1815 30.3682 61.2888 30.6284 61.2888 30.8993V52.7634C61.2888 53.0343 61.1815 53.2945 60.99 53.4861C60.7984 53.6776 60.5382 53.7858 60.2673 53.7859H44.365C44.094 53.7859 43.834 53.6777 43.6424 53.4861C43.4507 53.2945 43.3426 53.0345 43.3426 52.7634V30.8993C43.3426 30.6283 43.4507 30.3683 43.6424 30.1766C43.834 29.985 44.094 29.8768 44.365 29.8768ZM45.3865 32.1356L45.3836 51.5271V51.742H59.2449V31.9208H45.3865V32.1356Z" fill="#4D2C19" stroke="white" stroke-width="0.428571"/>
<path d="M44.365 19.498H60.2673C60.5382 19.4981 60.7984 19.6062 60.99 19.7978C61.1815 19.9894 61.2888 20.2495 61.2888 20.5204V25.7743C61.2887 26.0449 61.1812 26.3045 60.99 26.496C60.7984 26.6875 60.5382 26.7957 60.2673 26.7958H44.365C44.094 26.7958 43.834 26.6876 43.6424 26.496C43.451 26.3045 43.3427 26.0451 43.3426 25.7743V20.5204C43.3426 20.2494 43.4507 19.9894 43.6424 19.7978C43.834 19.6061 44.094 19.498 44.365 19.498ZM45.3865 21.7558L45.3836 24.538V24.7518H59.2449V21.5419H45.3875L45.3865 21.7558Z" fill="#4D2C19" stroke="white" stroke-width="0.428571"/>
<path d="M44.365 24.7514H63.0486C63.2256 24.7513 63.3995 24.7978 63.5534 24.8851C63.7074 24.9726 63.8368 25.0983 63.9275 25.2504C64.0181 25.4026 64.0675 25.5762 64.071 25.7533C64.0745 25.9304 64.0314 26.1055 63.947 26.2611L61.1658 31.3851V31.3861C61.0781 31.5479 60.9479 31.6826 60.7898 31.7767C60.6317 31.8709 60.4513 31.9212 60.2673 31.9213H44.365C44.094 31.9213 43.834 31.8131 43.6424 31.6214C43.4508 31.4298 43.3426 31.1698 43.3426 30.8988V25.7738C43.3426 25.5028 43.4507 25.2428 43.6424 25.0512C43.834 24.8595 44.094 24.7514 44.365 24.7514ZM45.3865 27.0092L45.3836 29.6625V29.8773H59.6619L59.7224 29.765L61.1609 27.1117L61.3318 26.7953H45.3875L45.3865 27.0092Z" fill="#4D2C19" stroke="white" stroke-width="0.428571"/>
<path d="M26.4159 7.25436H37.8651C38.1361 7.2544 38.3961 7.36256 38.5877 7.55417C38.7793 7.7458 38.8866 8.00587 38.8866 8.27682V13.144C38.8866 13.415 38.7794 13.675 38.5877 13.8666C38.3961 14.0582 38.1361 14.1654 37.8651 14.1655H26.4159C26.1449 14.1655 25.8849 14.0582 25.6933 13.8666C25.5016 13.675 25.3934 13.415 25.3934 13.144V8.27682C25.3934 8.00581 25.5016 7.7458 25.6933 7.55417C25.8849 7.36253 26.1449 7.25436 26.4159 7.25436ZM27.4374 12.1225H36.8426V9.2983H27.4374V12.1225Z" fill="#4D2C19" stroke="white" stroke-width="0.428571"/>
</svg>
