<svg width="33" height="35" viewBox="0 0 33 35" fill="none" xmlns="http://www.w3.org/2000/svg">
<path d="M32.3166 9.93519C32.0888 10.833 31.6466 12.5717 31.2077 14.2902C31.0858 14.7483 30.929 15.1962 30.7387 15.6303C29.8911 17.6403 29.7538 19.7274 29.6834 21.8614C29.5863 24.8027 29.2245 27.7173 28.1524 30.4911C27.9318 31.0664 27.6487 31.6157 27.3082 32.1293C25.8376 34.3637 22.9532 34.4542 21.449 32.2365C20.8438 31.251 20.3803 30.1853 20.0721 29.0707C19.5964 27.5698 19.2882 26.0154 18.8695 24.4945C18.7244 23.9981 18.515 23.5228 18.2464 23.0808C17.4222 21.7073 15.7204 21.5565 14.8259 22.8831C14.2225 23.8673 13.7442 24.9229 13.4022 26.0255C12.7556 27.858 12.2196 29.7306 11.5965 31.5698C11.433 31.983 11.1996 32.3649 10.9064 32.6988C9.65681 34.2599 7.60659 34.3135 6.28667 32.8127C5.21433 31.5388 4.51827 29.9912 4.27663 28.3437C3.83617 25.921 3.52528 23.4764 3.34531 21.0205C3.2451 19.2506 2.91746 17.5008 2.37045 15.8145C1.70044 13.8313 1.03043 11.8179 0.759078 9.76433C0.303471 6.22333 1.94164 3.49306 4.81934 1.52993C6.44747 0.417713 8.28663 0.555063 10.099 1.06762C11.027 1.32892 11.9482 1.60365 12.8527 1.93196C15.1182 2.78171 17.6121 2.79711 19.8879 1.97547C21.0269 1.58686 22.1927 1.25186 23.3619 0.970456C25.5897 0.414348 27.5461 0.970475 29.258 2.4981C31.2714 4.30042 32.3266 6.50474 32.3166 9.93519Z" stroke="#4D2C19" stroke-width="1.36" stroke-miterlimit="10" stroke-linecap="round"/>
</svg>
