<svg width="17" height="19" viewBox="0 0 17 19" fill="none" xmlns="http://www.w3.org/2000/svg">
<path d="M16.2937 8.65866V6.14476C16.2937 4.72458 16.2937 4.01448 15.9437 3.55119C15.5938 3.0879 14.8026 2.86298 13.2201 2.41315C12.139 2.10582 11.1859 1.73556 10.4244 1.39754C9.38622 0.93668 8.86717 0.706247 8.5 0.706247C8.13283 0.706247 7.61377 0.93668 6.57557 1.39754C5.81411 1.73556 4.86107 2.10581 3.77991 2.41315C2.19744 2.86298 1.4062 3.0879 1.05626 3.55119C0.70631 4.01448 0.70631 4.72458 0.70631 6.14476V8.65866C0.70631 13.5299 5.09049 16.4525 7.28245 17.6094C7.80818 17.8868 8.071 18.0255 8.5 18.0255C8.929 18.0255 9.19182 17.8868 9.71754 17.6094C11.9095 16.4525 16.2937 13.5299 16.2937 8.65866Z" fill="white" stroke="#4D2C19" stroke-width="1.36" stroke-linecap="round"/>
<path d="M5.9021 10.2319C5.9021 10.2319 6.76807 10.2319 7.63403 11.9638C7.63403 11.9638 10.3848 7.63401 12.8298 6.76805" stroke="#4D2C19" stroke-width="1.36" stroke-linecap="round" stroke-linejoin="round"/>
</svg>
